<svg width="175" height="39" viewBox="0 0 175 39" fill="none" xmlns="http://www.w3.org/2000/svg">
<g id="_&#208;&#161;&#208;&#187;&#208;&#190;&#208;&#185;_1" clip-path="url(#clip0_516_3728)">
<path id="Vector" d="M4.0921 29.7361V33.4345H8.54807V34.3799H4.0921V38.8216H3.08398V28.7847H8.76282V29.7301H4.08613L4.0921 29.7361Z" fill="#121212"/>
<path id="Vector_2" d="M19.9236 28.7907V38.8276H18.9155V28.7907H19.9236Z" fill="#121212"/>
<path id="Vector_3" d="M40.2766 34.5702C40.2766 36.9665 38.4513 39 35.3553 39C32.2594 39 30.0762 36.6751 30.0762 33.8091C30.0762 30.9431 32.2594 28.6182 35.3553 28.6182C37.2403 28.6182 38.8808 29.6053 39.7159 31.0858L38.8271 31.6031C38.2067 30.3961 36.8705 29.5934 35.3613 29.5934C32.8142 29.5934 31.0903 31.4723 31.0903 33.8091C31.0903 36.1459 32.8142 38.0249 35.3613 38.0249C37.7056 38.0249 39.0597 36.6751 39.2446 34.9983H35.248V34.0529H40.2826V34.5702H40.2766Z" fill="#121212"/>
<path id="Vector_4" d="M57.91 28.7907V38.8276H56.9019V34.1421H51.4378V38.8276H50.4297V28.7907H51.4378V33.1907H56.9019V28.7907H57.91Z" fill="#121212"/>
<path id="Vector_5" d="M74.9644 29.7361H71.8744V38.8276H70.8663V29.7361H67.7764V28.7907H74.9644V29.7361Z" fill="#121212"/>
<path id="Vector_6" d="M96.2778 36.5443L97.1428 36.0448C97.5007 37.2459 98.4492 38.0249 100.036 38.0249C101.623 38.0249 102.41 37.2935 102.41 36.2173C102.41 35.0578 101.42 34.6832 99.9345 34.1956C98.2941 33.6486 96.7133 33.2205 96.7133 31.3713C96.7133 29.522 98.139 28.6182 99.8032 28.6182C101.468 28.6182 102.607 29.5934 103.126 30.7826L102.279 31.2583C101.903 30.3545 101.128 29.5934 99.8032 29.5934C98.5923 29.5934 97.7154 30.2237 97.7154 31.3296C97.7154 32.4356 98.5804 32.7626 99.9464 33.2086C101.772 33.8091 103.412 34.3264 103.412 36.1935C103.412 37.9119 102.034 39.006 100.018 39.006C98.1628 39.006 96.7968 38.0724 96.2778 36.5562V36.5443Z" fill="#121212"/>
<path id="Vector_7" d="M119.536 29.7361H116.446V38.8276H115.438V29.7361H112.348V28.7907H119.536V29.7361Z" fill="#121212"/>
<path id="Vector_8" d="M128.251 33.8091C128.251 30.9431 130.524 28.6182 133.459 28.6182C136.393 28.6182 138.666 30.9431 138.666 33.8091C138.666 36.6751 136.393 39 133.459 39C130.524 39 128.251 36.6751 128.251 33.8091ZM137.658 33.8091C137.658 31.4723 135.845 29.5934 133.459 29.5934C131.072 29.5934 129.259 31.4723 129.259 33.8091C129.259 36.1459 131.072 38.0249 133.459 38.0249C135.845 38.0249 137.658 36.1459 137.658 33.8091Z" fill="#121212"/>
<path id="Vector_9" d="M152.643 34.814H149.821V38.8276H148.813V28.7907H152.839C154.51 28.7907 155.858 30.1404 155.858 31.7994C155.858 33.161 154.939 34.3205 153.687 34.6832L156.144 38.8276H154.993L152.637 34.814H152.643ZM149.821 33.8686H152.839C153.949 33.8686 154.856 32.935 154.856 31.8053C154.856 30.6756 153.949 29.742 152.839 29.742H149.821V33.8686Z" fill="#121212"/>
<path id="Vector_10" d="M171.916 37.8821V38.8276H166.022V28.7907H171.844V29.7361H167.025V33.2918H171.481V34.2372H167.025V37.8762H171.916V37.8821Z" fill="#121212"/>
<path id="Vector_11" d="M0 2.27733L5.45216 0.38649H7.82033V21.0668H5.09425V3.33572L0.680029 4.6379L0 2.27733Z" fill="#121212"/>
<path id="Vector_12" d="M25.1907 21.0608H11.793V18.8132L19.1122 11.3688C21.0688 9.41851 22.0471 7.74767 22.0471 6.34441C22.0471 5.20277 21.6951 4.29898 20.9972 3.63897C20.2933 2.97896 19.4224 2.64598 18.3725 2.64598C16.416 2.64598 14.9963 3.57356 14.1075 5.42278L11.793 4.06114C12.4253 2.74112 13.3141 1.73029 14.4594 1.03461C15.6047 0.338921 16.8991 -0.0118942 18.3427 -0.0118942C20.1024 -0.0118942 21.6116 0.558924 22.8762 1.70056C24.1588 2.86598 24.803 4.40006 24.803 6.30873C24.803 8.39579 23.5682 10.6731 21.0986 13.1348L15.7956 18.3911H25.1907V21.0489V21.0608Z" fill="#121212"/>
<path id="Vector_13" d="M26.6406 0.38649H41.6072V2.9849H35.475V21.0668H32.749V2.9849H26.6466V0.38649H26.6406Z" fill="#121212"/>
<path id="Vector_14" d="M57.7608 9.15688V0.38649H60.4868V21.0668H57.7608V11.7612H47.6856V21.0668H44.9297V0.38649H47.6856V9.16283H57.7608V9.15688Z" fill="#121212"/>
<path id="Vector_15" d="M88.8748 21.0608H85.8207L81.1679 13.1467H76.2764V21.0608H73.5205V0.38649H81.8181C83.5957 0.38649 85.1168 1.01677 86.3814 2.27733C87.646 3.52005 88.2783 5.02439 88.2783 6.79631C88.2783 8.13417 87.8727 9.35905 87.0614 10.4591C86.2323 11.5829 85.2063 12.3618 83.9774 12.7899L88.8689 21.0608H88.8748ZM81.824 2.94923H76.2824V10.6612H81.824C82.85 10.6612 83.7209 10.2866 84.4308 9.53743C85.1585 8.78823 85.5284 7.87254 85.5284 6.79036C85.5284 5.70819 85.1645 4.79844 84.4308 4.07303C83.7209 3.32383 82.85 2.94923 81.824 2.94923Z" fill="#121212"/>
<path id="Vector_16" d="M91.0405 10.7207C91.0405 7.72984 92.0785 5.19683 94.1543 3.12761C96.2302 1.04056 98.7654 -0.0059433 101.772 -0.0059433C104.778 -0.0059433 107.313 1.04056 109.389 3.12761C111.483 5.19683 112.533 7.72389 112.533 10.7207C112.533 13.7175 111.483 16.2267 109.389 18.3138C107.313 20.4008 104.778 21.4473 101.772 21.4473C98.7654 21.4473 96.2302 20.4068 94.1543 18.3138C92.0785 16.2089 91.0405 13.6759 91.0405 10.7207ZM109.771 10.7207C109.771 8.43742 109.002 6.52874 107.457 4.98872C105.953 3.43086 104.057 2.65788 101.766 2.65788C99.4753 2.65788 97.5903 3.43681 96.0453 4.98872C94.5242 6.54658 93.7606 8.45526 93.7606 10.7207C93.7606 12.9861 94.5182 14.877 96.0453 16.4527C97.5843 17.9867 99.4932 18.7597 101.766 18.7597C104.039 18.7597 105.953 17.9927 107.457 16.4527C108.996 14.877 109.771 12.9683 109.771 10.7207Z" fill="#121212"/>
<path id="Vector_17" d="M116.022 14.1218V0.38649H118.778V14.0029C118.778 15.4775 119.22 16.6429 120.097 17.4873C120.974 18.3316 122.214 18.7597 123.819 18.7597C125.424 18.7597 126.658 18.3376 127.541 17.4873C128.418 16.6429 128.859 15.4775 128.859 14.0029V0.38649H131.586V14.1218C131.586 16.3694 130.864 18.1473 129.42 19.4673C127.977 20.7873 126.11 21.4473 123.819 21.4473C121.528 21.4473 119.631 20.7873 118.188 19.4673C116.744 18.1473 116.022 16.3635 116.022 14.1218Z" fill="#121212"/>
<path id="Vector_18" d="M149.278 15.8045V0.38649H152.034V21.0668H149.809L139.137 5.61899V21.0668H136.381V0.38649H138.606L149.278 15.8045Z" fill="#121212"/>
<path id="Vector_19" d="M157.069 0.38649H165.158C167.961 0.38649 170.306 1.39137 172.179 3.40113C174.058 5.39305 174.994 7.83092 174.994 10.7266C174.994 13.6223 174.058 16.0543 172.179 18.0819C170.3 20.0738 167.961 21.0668 165.158 21.0668H157.069V0.38649ZM159.825 18.4684H165.158C167.269 18.4684 168.999 17.7311 170.341 16.2505C171.683 14.7521 172.358 12.9148 172.358 10.7266C172.358 8.5385 171.683 6.70117 170.341 5.20277C168.999 3.72816 167.269 2.9849 165.158 2.9849H159.825V18.4624V18.4684Z" fill="#121212"/>
</g>
<defs>
<clipPath id="clip0_516_3728">
<rect width="175" height="39" fill="white"/>
</clipPath>
</defs>
</svg>
