<svg width="16" height="16" viewBox="0 0 16 16" fill="none" xmlns="http://www.w3.org/2000/svg">
<g id="search" clip-path="url(#clip0_516_3716)">
<path id="Vector" d="M11.7419 10.3443C12.7102 9.02296 13.1439 7.38476 12.9562 5.75742C12.7685 4.13008 11.9733 2.63361 10.7297 1.5674C9.48604 0.501189 7.88567 -0.0561281 6.24876 0.00694505C4.61184 0.0700182 3.05911 0.74883 1.90119 1.90758C0.743273 3.06632 0.0655718 4.61954 0.00366997 6.2565C-0.0582319 7.89346 0.500231 9.49343 1.56733 10.7363C2.63443 11.9792 4.13147 12.7733 5.75894 12.9599C7.38641 13.1464 9.0243 12.7115 10.3449 11.7423H10.3439C10.3739 11.7823 10.4059 11.8203 10.4419 11.8573L14.2919 15.7073C14.4794 15.8949 14.7338 16.0004 14.9991 16.0005C15.2643 16.0006 15.5188 15.8953 15.7064 15.7078C15.8941 15.5203 15.9995 15.2659 15.9996 15.0006C15.9997 14.7354 15.8944 14.4809 15.7069 14.2933L11.8569 10.4433C11.8212 10.4071 11.7827 10.3736 11.7419 10.3433V10.3443ZM11.9999 6.50027C11.9999 7.22254 11.8577 7.93774 11.5813 8.60503C11.3049 9.27232 10.8997 9.87863 10.389 10.3894C9.87829 10.9001 9.27197 11.3052 8.60468 11.5816C7.93739 11.858 7.22219 12.0003 6.49992 12.0003C5.77765 12.0003 5.06245 11.858 4.39516 11.5816C3.72787 11.3052 3.12156 10.9001 2.61083 10.3894C2.10011 9.87863 1.69498 9.27232 1.41858 8.60503C1.14218 7.93774 0.999921 7.22254 0.999921 6.50027C0.999921 5.04158 1.57938 3.64263 2.61083 2.61118C3.64228 1.57973 5.04123 1.00027 6.49992 1.00027C7.95861 1.00027 9.35756 1.57973 10.389 2.61118C11.4205 3.64263 11.9999 5.04158 11.9999 6.50027Z" fill="#121212"/>
</g>
<defs>
<clipPath id="clip0_516_3716">
<rect width="16" height="16" fill="white"/>
</clipPath>
</defs>
</svg>
